<?xml version="1.0" encoding="UTF-8" standalone="no"?>
<svg width="300px" height="300px" viewBox="0 0 300 300" version="1.1" xmlns="http://www.w3.org/2000/svg" xmlns:xlink="http://www.w3.org/1999/xlink">
    <!-- Generator: Sketch 46.1 (44463) - http://www.bohemiancoding.com/sketch -->
    <title>love-comes-first-v2</title>
    <desc>Created with Sketch.</desc>
    <defs>
        <path d="M10.1593172,70.7223088 L10.1593172,65.9200622 L10.1593172,19.0229613 C10.1593172,15.0741112 13.3685164,11.8729357 17.3093172,11.8729357 L17.3093172,11.8729357 C21.2581532,11.8729357 24.4593172,15.0723596 24.4593172,19.0244409 L24.4593172,64.8105072 L24.4593172,70.7466076 L10.1593172,70.7223088 Z" id="path-1"></path>
        <path d="M9.36067773,34.0914864 C9.36067773,22.1975624 18.9999629,12.555632 30.8964648,12.555632 L30.8964648,12.555632 C42.7903516,12.555632 52.4322517,22.1907756 52.4322514,34.0914864 L52.4322511,45.2632633 C52.4322508,57.1571872 42.7981621,66.3070299 30.9313995,65.7009021 L30.8964642,65.6991177 L30.8615288,65.7009021 C18.9869367,66.3074298 9.36067773,57.1639741 9.36067773,45.2632633 L9.36067773,34.0914864 Z" id="path-2"></path>
        <path d="M26.9222315,13.1053682 C17.5500666,13.1053682 9.96540175,28.9130313 0.593236908,28.9130313 L0.593236908,18.3718326 C0.593236908,10.6053981 6.84326282,3.49970813 14.5380354,2.51058457 C14.5380354,2.51058457 27.5645597,0.799117911 28.50375,0.799117911 L38.6883623,2.28273049 C46.3722782,3.40206169 52.6013228,10.5975839 52.6013228,18.3718326 L52.6013228,28.9130313 C44.637459,28.9130313 34.8860953,13.1053682 26.9222315,13.1053682 Z" id="path-4"></path>
    </defs>
    <g id="Page-1" stroke="none" stroke-width="1" fill="none" fill-rule="evenodd">
        <g id="love-comes-first-v2">
            <path d="M122.029984,253.658881 C122.029984,253.658881 71.0337051,251.868998 90.1054842,262.966274 C109.177263,274.06355 102.128997,280.149152 134.053497,275.137479 C165.977997,270.125807 165.977996,271.439395 186.708191,268.335923 C207.438386,265.232451 226.924768,262.608297 203.706951,257.238648 C180.489133,251.868998 122.029984,253.658881 122.029984,253.658881 Z" id="Path-98" stroke="#F37021" stroke-width="2.2" fill="#F5C39F"></path>
            <g id="confetti" transform="translate(135.612598, 15.337500)">
                <g id="left-top" transform="translate(-0.000000, 5.775000)">
                    <circle id="Oval-8" fill="#F5C39F" cx="3.31169858" cy="3.575" r="3.09375"></circle>
                    <g id="plus---1" transform="translate(9.625000, 0.000000)" stroke="#F37021" stroke-width="2.0625" stroke-linecap="round">
                        <path d="M5.42157364,1.5125 L5.42157364,12.0292278" id="Line-Copy-4"></path>
                        <path d="M10.7820514,6.66875 L0.265323643,6.66875" id="Line-Copy-3"></path>
                    </g>
                </g>
                <g id="right-bottom" transform="translate(87.376046, 49.086426)">
                    <circle id="Oval-8-Copy" fill="#F5C39F" cx="27.0481831" cy="15.46875" r="3.09375"></circle>
                    <g id="plus---2" transform="translate(8.625000, 17.875000)" stroke="#F37021" stroke-width="2.0625" stroke-linecap="round">
                        <path d="M5.94606917,1.71875 L5.94606917,12.2354778" id="Line"></path>
                        <path d="M11.3065469,6.875 L0.789819167,6.875" id="Line-Copy-2"></path>
                    </g>
                    <g id="asterick---1" transform="translate(0.102319, 0.000000)" stroke="#F37021" stroke-width="2.0625" stroke-linecap="round">
                        <path d="M5.78285284,1.03125 L5.78285284,11.5479778" id="Line-Copy-6"></path>
                        <path d="M11.1433306,6.1875 L0.626602837,6.1875" id="Line-Copy-5"></path>
                        <path d="M2.06462807,2.46927524 L9.5010776,9.90572476" id="Line-Copy-8"></path>
                        <path d="M9.60319149,2.46927524 L2.16674196,9.90572476" id="Line-Copy-7"></path>
                    </g>
                </g>
                <g id="right-top" transform="translate(97.001046, 0.962500)" stroke="#F37021" stroke-width="2.0625" stroke-linecap="round">
                    <path d="M5.78285284,1.03125 L5.78285284,11.5479778" id="Line-Copy-6"></path>
                    <path d="M11.1433306,6.1875 L0.626602837,6.1875" id="Line-Copy-5"></path>
                    <path d="M2.06462807,2.46927524 L9.5010776,9.90572476" id="Line-Copy-8"></path>
                    <path d="M9.60319149,2.46927524 L2.16674196,9.90572476" id="Line-Copy-7"></path>
                </g>
            </g>
            <path d="M196.5,82.1625 L196.5,206.004035" id="Line" stroke="#F37021" stroke-width="3" stroke-linecap="round"></path>
            <g id="North-Africa" transform="translate(107.087598, 67.063382)">
                <g id="India-Copy" transform="translate(0.096250, -0.000000)">
                    <g id="Body" transform="translate(0.003750, 57.899118)">
                        <rect id="Rectangle-17" fill="#F37021" x="28.2869629" y="131" width="12.1" height="8.8" rx="4.4"></rect>
                        <rect id="Rectangle-17-Copy" fill="#F37021" x="47.9812673" y="131" width="12.1" height="8.8" rx="4.4"></rect>
                        <path d="M16.6993808,58.9077777 C16.8422373,57.6841195 16.9955497,56.370899 17.1570212,54.9877915 C19.2008855,37.480769 22.5522628,8.7740497 22.5522628,8.7740497 C23.1159438,3.94575723 27.5054225,0.0316528329 32.3737107,0.0316528329 L54.0970833,0.0316528329 C58.9576383,0.0316528329 63.4429474,3.9402061 64.1140253,8.75249769 C64.1140253,8.75249769 67.7576641,34.8809894 69.5802019,47.9503867 C69.7007148,48.8145833 69.8212277,49.6787799 69.9417406,50.5429764 C73.4250921,75.5220493 80.3936477,125.493481 80.3936477,125.493481 C81.0646692,130.305368 77.6722632,134.206174 72.8101658,134.206174 L16.7071135,134.206174 C11.8478506,134.206174 8.36600745,130.288522 8.92890373,125.46695 L16.6993808,58.9077777 Z" id="Rectangle-8-Copy" fill="#FFFFFF"></path>
                        <path d="M42.0369629,24.9875 C42.0369629,24.9875 30.2119629,27.325 37.7744629,39.0125 C45.3369629,50.7 55.9244621,48.9125 63.3494627,64.3125 C70.7744634,79.7125 60.3244629,134.025 60.3244629,134.025 L74.7619629,134.4375 C74.7619629,134.4375 81.2244643,131.55 80.1244629,126.7375 C79.0244615,121.925 68.0244629,49.7375 68.0244629,49.7375 L57.1619629,21.9625 L42.0369629,24.9875 Z" id="Path-91" fill="#F5C39F"></path>
                        <path d="M14.9521484,92.3625 C14.9521484,92.3625 16.1896484,110.1 20.4521484,116.7 C24.7146484,123.3 28.0146484,134.7125 28.0146484,134.7125 L14.2646484,134.1625 C14.2646484,134.1625 8.90214844,131.9625 9.72714844,127.15 C10.5521484,122.3375 14.9521484,92.3625 14.9521484,92.3625 Z" id="Path-95" fill="#F5C39F"></path>
                        <path d="M24.045324,10.0479865 L10.4219649,126.740887 C9.96290522,130.67303 12.7502724,133.806174 16.7102934,133.806174 L72.8133457,133.806174 C76.7636348,133.806174 79.4565675,130.711454 78.9112032,126.800653 L62.6315808,10.0596692 C62.0636356,5.98694086 58.2107814,2.63165283 54.1002632,2.63165283 L32.3768906,2.63165283 C28.2726171,2.63165283 24.5210787,5.972839 24.045324,10.0479865 Z" id="Rectangle-8" stroke="#F37021" stroke-width="3"></path>
                        <path d="M62.9369629,17.5625 C62.9369629,17.5625 74.4869629,46.85 76.4119629,50.2875 C78.3369629,53.725 86.7244629,65.275 86.7244629,65.275 L87.9619629,63.625 L67.8869629,16.325 L64.8619629,14.675 L62.9369629,17.5625 Z" id="Path-92" fill="#F5C39F"></path>
                        <rect id="Rectangle-9" stroke="#F37021" stroke-width="3" transform="translate(73.525000, 46.300000) rotate(-23.000000) translate(-73.525000, -46.300000) " x="67.9465" y="14.5855" width="11.157" height="63.429" rx="5.5785"></rect>
                        <path d="M66.688807,67.0408408 L66.688807,62.5237058 C66.688807,47.8191442 67.5708265,19.9250012 67.5708265,19.9250012 C67.5708265,19.9250012 67.8917642,18.5939173 69.9277788,17.9995092 C71.9637933,17.4051011 73.0999489,17.4051011 73.0999489,17.4051011 C73.0999489,17.4051011 73.7058998,47.1233574 73.7058998,61.4800255 L73.7058998,67.063697 L66.688807,67.0408408 Z" id="Rectangle-9-Copy-4" fill="#FFFFFF" transform="translate(70.197353, 42.234399) rotate(-23.000000) translate(-70.197353, -42.234399) "></path>
                        <path d="M65.7659044,69.1277523 L77.0659044,69.1469534 L77.0659044,18.9273377 C77.0659044,15.8045249 74.5371547,13.2758325 71.4159044,13.2758325 C68.3004964,13.2758325 65.7659044,15.8084676 65.7659044,18.9258581 L65.7659044,69.1277523 Z" id="Rectangle-9-Copy-2" stroke="#F37021" stroke-width="3" transform="translate(71.415904, 41.212668) rotate(-23.000000) translate(-71.415904, -41.212668) "></path>
                        <rect id="Rectangle-9-Copy" stroke="#F37021" stroke-width="3" transform="translate(15.974797, 45.200000) rotate(16.000000) translate(-15.974797, -45.200000) " x="10.3962972" y="13.4855" width="11.157" height="63.429" rx="5.5785"></rect>
                        <g id="Rectangle-9-Copy-3" transform="translate(17.309317, 41.309772) rotate(16.000000) translate(-17.309317, -41.309772) ">
                            <use fill="#FFFFFF" fill-rule="evenodd" xlink:href="#path-1"></use>
                            <path stroke="#F37021" stroke-width="3" d="M11.6593172,69.2248555 L22.9593172,69.2440566 L22.9593172,19.0244409 C22.9593172,15.9016281 20.4305674,13.3729357 17.3093172,13.3729357 C14.1939091,13.3729357 11.6593172,15.9055707 11.6593172,19.0229613 L11.6593172,69.2248555 Z"></path>
                        </g>
                    </g>
                    <g id="Head" transform="translate(12.300000, 0.000000)">
                        <path d="M0.131054688,31.0129649 C0.131054688,14.0225614 13.9014621,0.249118042 30.8964648,0.249118042 L30.8964648,0.249118042 C47.8877317,0.249118042 61.661875,14.0138464 61.661875,31.0129649 L61.661875,52.4196537 C61.661875,69.4100571 47.8914676,83.1835005 30.8964648,83.1835005 L30.8964648,83.1835005 C13.905198,83.1835005 0.131054688,69.4187722 0.131054688,52.4196537 L0.131054688,31.0129649 Z" id="Rectangle-1-Copy-2" fill="#FFFFFF"></path>
                        <path d="M28.2308984,1.89911804 C28.2308984,1.89911804 22.0433984,3.13661804 26.3058984,6.29911804 C30.5683984,9.46161804 48.8558984,11.936618 54.0808989,19.636618 C59.3058993,27.336618 56.1433984,54.974118 56.1433989,54.286618 C56.1433993,53.599118 56.0032129,61.711618 48.1657133,68.861618 C40.3282137,76.011618 26.4412495,81.236618 32.9037499,81.236618 C39.3662503,81.236618 52.705898,75.324118 54.0808984,72.574118 C55.4558989,69.824118 63.018398,60.749118 61.3683984,46.449118 C59.7183989,32.149118 62.3308993,26.099118 56.1433989,15.236618 C49.9558984,4.37411804 37.583047,1.62411804 35.2433984,1.62411804 C32.9037499,1.62411804 28.2308984,1.89911804 28.2308984,1.89911804 Z" id="Path-97" fill="#F5C39F"></path>
                        <path d="M1.63105469,31.0129649 L1.63105469,52.4196537 C1.63105469,68.5872523 14.7305317,81.6835005 30.8964648,81.6835005 C47.0617391,81.6835005 60.161875,68.5829314 60.161875,52.4196537 L60.161875,31.0129649 C60.161875,14.8453662 47.062398,1.74911804 30.8964648,1.74911804 C14.7311906,1.74911804 1.63105469,14.8496871 1.63105469,31.0129649 Z" id="Rectangle-1" stroke="#F37021" stroke-width="3"></path>
                        <mask id="mask-3" fill="white">
                            <use xlink:href="#path-2"></use>
                        </mask>
                        <g id="Rectangle-1-Copy">
                            <use fill="#FFFFFF" fill-rule="evenodd" xlink:href="#path-2"></use>
                            <path stroke="#F37021" stroke-width="3" d="M10.8606777,34.0914864 L10.8606777,45.2632633 C10.8606777,56.3031861 19.7654818,64.765708 30.7850119,64.202855 L30.8199473,64.2010705 L30.9729811,64.2010705 L31.0079164,64.202855 C42.0199925,64.7653273 50.9322509,56.2960232 50.9322511,45.2632633 L50.9322514,34.0914863 C50.9322517,23.0216187 41.964341,14.055632 30.8964648,14.055632 C19.8293224,14.055632 10.8606777,23.0250571 10.8606777,34.0914864 Z"></path>
                        </g>
                        <g id="Rectangle-1-Copy-4" mask="url(#mask-3)">
                            <g transform="translate(4.400000, 9.900000)">
                                <path d="M27.4026758,2.99911804 C27.4026758,2.99911804 38.7505273,14.3585865 39.8505273,25.3585865 C40.438253,31.2358429 40.5377265,36.2521634 39.4589258,41.8957474 C38.5186198,46.8148169 26.1161523,52.7380325 26.1161523,52.7380325 C26.1161523,52.7380325 32.5792871,53.7514603 37.547793,49.8684036 C42.5162988,45.985347 43.541131,43.1070616 44.5360742,39.782222 C45.4660389,36.6745235 44.984564,29.5363778 45.2936426,25.6752903 C45.7845615,19.5426081 44.9785126,13.4991414 43.6284814,12.486618 C41.4284814,10.836618 27.4026758,2.99911804 27.4026758,2.99911804 Z" id="Path-90" stroke="none" fill="#F5C39F" fill-rule="evenodd"></path>
                                <mask id="mask-5" fill="white">
                                    <use xlink:href="#path-4"></use>
                                </mask>
                                <g id="Rectangle-1-Copy-4" stroke="none" fill="none">
                                    <use fill="#F37021" fill-rule="evenodd" xlink:href="#path-4"></use>
                                    <path stroke="#F37021" stroke-width="0.77" d="M52.2163228,28.518264 L52.2163228,18.3718326 C52.2163228,10.7914893 46.1302701,3.75587135 38.6328644,2.66370946 L28.50375,1.18411791 C28.1325282,1.18411791 25.5481685,1.48898133 21.5958696,1.98882794 C21.4064197,2.01279882 21.4064197,2.01279882 21.217131,2.03679245 C19.7414114,2.22393105 18.1822103,2.42444684 16.6376707,2.62496394 C16.0970748,2.69514584 15.5969304,2.76031427 15.1495022,2.81879765 C14.6898412,2.87894846 14.6898412,2.87894846 14.5871213,2.89244262 C7.08333247,3.8570162 0.978236908,10.8001491 0.978236908,18.3718326 L0.978236908,28.5210624 C4.55883527,28.3897203 7.43088306,26.3809331 13.4952078,20.7275885 C19.9327699,14.7263009 22.877389,12.7203682 26.9222315,12.7203682 C30.380769,12.7203682 33.2871793,14.7157911 40.0181075,20.7219372 C46.3079512,26.3344946 49.186264,28.3630721 52.2163228,28.518264 Z"></path>
                                </g>
                            </g>
                        </g>
                        <path d="M19.4167467,47.7800455 C22.4543128,47.7800455 24.5477859,45.4130021 24.5477859,42.3754359 C24.5477859,39.3378698 22.4543128,37.0506796 19.4167467,37.0506796" id="Oval-22" fill="#FF6600" mask="url(#mask-3)" transform="translate(21.982266, 42.415363) rotate(271.000000) translate(-21.982266, -42.415363) "></path>
                        <path d="M19.4167467,47.7800455 C22.4543128,47.7800455 24.5477859,45.4130021 24.5477859,42.3754359 C24.5477859,39.3378698 22.4543128,37.0506796 19.4167467,37.0506796" id="Oval-22-Copy-2" fill="#F37021" mask="url(#mask-3)" transform="translate(21.982266, 42.415363) rotate(271.000000) translate(-21.982266, -42.415363) "></path>
                        <path d="M37.7039781,47.7800455 C40.7415443,47.7800455 42.8350173,45.4130021 42.8350173,42.3754359 C42.8350173,39.3378698 40.7415443,37.0506796 37.7039781,37.0506796" id="Oval-22-Copy" fill="#F37021" mask="url(#mask-3)" transform="translate(40.269498, 42.415363) rotate(271.000000) translate(-40.269498, -42.415363) "></path>
                        <path d="M31.25375,57.2428682 C35.4472316,57.2428682 35.10375,54.5679011 35.10375,53.049118 C35.10375,51.530335 35.5159814,53.049118 31.25375,53.049118 C26.9915186,53.049118 27.40375,51.530335 27.40375,53.049118 C27.40375,54.5679011 27.40375,57.2428682 31.25375,57.2428682 Z" id="Oval-24" fill="#F37021" mask="url(#mask-3)"></path>
                    </g>
                </g>
            </g>
            <path d="M168.062329,39.8125 C168.887329,36.7875 170.812329,30.7375 177.893579,30.05" id="Path-44" stroke="#F37021" stroke-width="3" stroke-linecap="round"></path>
            <path d="M197.212061,43.6624999 C197.212061,43.6624999 210.411523,29.3236455 218.386523,40.9124999 C226.361523,52.5013543 197.212061,81.6125 197.212061,81.6125 C197.212061,81.6125 229.249561,55.0750002 230.212061,50.2625 C231.174561,45.4499998 232.411523,36.7875005 229.111523,32.1124998 C225.811523,27.4374991 220.586523,21.1125 210.274561,24.1375 C199.962598,27.1625 197.212061,43.6624999 197.212061,43.6624999 Z" id="Path-89" fill="#F5C39F"></path>
            <path d="M196.697033,82.4925 C196.697033,82.4925 228.635692,60.8194788 231.347033,44.2125 C232.667031,36.1275 226.067033,23.7525 213.692033,23.7525 C201.317033,23.7525 196.697033,40.5825 196.697033,40.5825 C196.697033,40.5825 192.435131,23.7525 179.207033,23.7525 C165.978934,23.7525 161.057033,37.1175 162.872033,44.2125 C167.061666,60.5901586 196.697033,82.4925 196.697033,82.4925 Z" id="heart" stroke="#F37021" stroke-width="3"></path>
            <path d="M131.948242,143.966064 C131.948242,143.966064 127.562566,153.42325 126.122314,158.374268 C124.585594,163.656905 122.919205,175.826703 121.207422,182.675 C119.239373,190.548535 118.400635,192.096191 118.400635,192.096191 L121.46582,192.97876 L134.771729,145.820801 L131.948242,143.966064 Z" id="Path-94" fill="#F5C39F"></path>
        </g>
    </g>
</svg>